<svg width="50" height="50" viewBox="0 0 73 65" xmlns="http://www.w3.org/2000/svg" id="icon"><g transform="translate(-14 -39)" fill="none" fill-rule="evenodd"><path d="M0 0h100v100H0z"/><g transform="translate(14 39)" fill="currentColor"><path d="M71.86 0H37.64c-.314 0-.6.128-.806.336L24.6 12.636c-8.855.23-15.475 6.542-15.475 14.884v5.797C4 33.89 0 38.27 0 43.574V51.6c0 3.162 2.558 5.734 5.703 5.734H16.06c.557 3.883 3.88 6.88 7.893 6.88 4.403 0 7.985-3.6 7.985-8.027 0-4.426-3.582-8.027-7.985-8.027-4.015 0-7.336 2.997-7.893 6.88H5.703c-1.485 0-2.74-.962-3.212-2.293h2.072c2.517 0 4.563-2.057 4.563-4.587s-2.046-4.586-4.563-4.586h-2.28c0-4.427 3.58-8.027 7.984-8.027.63 0 1.14-.514 1.14-1.147v-6.88c0-7.19 5.885-12.613 13.688-12.613H36.5V55.04h-4.563v2.294h18.344c.555 3.883 3.878 6.88 7.892 6.88s7.336-2.997 7.893-6.88h1.232c3.145 0 5.703-2.572 5.703-5.734V1.147C73 .514 72.49 0 71.86 0zM23.952 50.454c3.145 0 5.703 2.572 5.703 5.733 0 3.16-2.558 5.733-5.703 5.733-3.145 0-5.703-2.572-5.703-5.733 0-3.16 2.558-5.733 5.703-5.733zm-19.39-4.587a2.29 2.29 0 0 1 2.28 2.293 2.29 2.29 0 0 1-2.28 2.294H2.28v-4.587h2.283zM70.72 12.613h-9.126V2.293h9.125v10.32zM38.78 35.547h31.94v5.733H38.78v-5.733zm0-2.293v-10.94a6.784 6.784 0 0 0 4.564 1.766c2.38 0 4.476-1.228 5.703-3.084a6.83 6.83 0 0 0 5.703 3.084c2.38 0 4.476-1.228 5.703-3.084a6.83 6.83 0 0 0 5.703 3.084c1.753 0 3.35-.672 4.563-1.767v10.94H38.78zm0-18.347h9.126V17.2c0 2.53-2.046 4.587-4.562 4.587-2.516 0-4.563-2.057-4.563-4.587v-2.293zM59.313 17.2c0 2.53-2.046 4.587-4.562 4.587-2.516 0-4.563-2.057-4.563-4.587v-2.293h9.126V17.2zm0-4.587h-9.124V2.293h9.124v10.32zM70.72 17.2c0 2.53-2.048 4.587-4.564 4.587s-4.562-2.057-4.562-4.587v-2.293h9.125V17.2zM38.78 2.293h9.126v10.32H38.78V2.293zm-10.933 10.32L36.5 3.915v8.698h-8.653zM58.172 61.92c-3.145 0-5.703-2.572-5.703-5.733 0-3.16 2.557-5.733 5.702-5.733s5.703 2.572 5.703 5.733c0 3.16-2.558 5.733-5.703 5.733zM70.72 51.6c0 1.897-1.537 3.44-3.423 3.44h-1.232c-.557-3.883-3.88-6.88-7.893-6.88-4.015 0-7.337 2.997-7.893 6.88h-11.5V43.574h31.94V51.6z"/><path d="M33.078 28.667v-10.32c0-.633-.51-1.147-1.14-1.147h-6.844c-6.29 0-11.407 5.144-11.407 11.467 0 .633.51 1.147 1.14 1.147h17.11c.63 0 1.14-.514 1.14-1.147zm-2.28-1.147h-14.76c.565-4.52 4.41-8.027 9.056-8.027h5.703v8.027zM27.375 32.107h4.563V34.4h-4.563z"/></g></g></svg>
