<svg width="50" height="50" viewBox="0 0 85 76" xmlns="http://www.w3.org/2000/svg" id="icon"><title>Group 15</title><g transform="translate(-8 -24)" fill="none" fill-rule="evenodd"><path d="M0 0h100v100H0z"/><path d="M92.525 43.29l-9.795-9.32v-8.427c0-.798-.657-1.445-1.466-1.445-.81 0-1.465.647-1.465 1.445v5.787a17.008 17.008 0 0 0-10.044-3.258 17.008 17.008 0 0 0-10.043 3.258v-5.787c0-.798-.656-1.445-1.465-1.445-.81 0-1.466.647-1.466 1.445V33.5l-10.258 9.79c-.385.366-.537.91-.397 1.42.098.352 1.026 3.47 3.59 4.144.316.083.637.124.96.124.716 0 1.445-.203 2.187-.606v2.215H36.17a18.92 18.92 0 0 0-12.21 4.447 1.447 1.447 0 0 0-.12-.006h-4.874c-4.512 0-8.182 3.62-8.182 8.07v7.446C9.16 71.147 8 72.694 8 74.504c0 1.625 1.29 6.742 4.288 6.742s4.288-5.117 4.288-6.742c0-1.84-1.196-3.406-2.86-3.987v-7.42c0-2.855 2.354-5.178 5.25-5.178h2.217a18.55 18.55 0 0 0-3.92 11.414v25.264c0 2.77 2.285 5.024 5.094 5.024h1.995c2.81 0 5.094-2.254 5.094-5.024v-9.662a1.47 1.47 0 0 0 .004-.103c0-1.232 1.01-2.312 2.163-2.312h.18c1.174 0 2.164 1.02 2.164 2.223v10.11c0 2.77 2.286 5.022 5.094 5.022h1.997c2.81 0 5.094-2.253 5.094-5.023v-12.34h5.313v12.086c0 2.77 2.285 5.024 5.094 5.024h1.996c2.81 0 5.094-2.254 5.094-5.024V84.4a1.47 1.47 0 0 0 .003-.104c0-1.23 1.01-2.312 2.163-2.312H67.8c1.172 0 2.162 1.018 2.162 2.223v10.645c0 2.77 2.285 5.023 5.094 5.023h1.996c2.81 0 5.094-2.253 5.094-5.023V63.657c2.582-.63 4.502-2.934 4.502-5.672V48.6a4.32 4.32 0 0 0 1.722.378c.324 0 .645-.04.963-.124 2.563-.673 3.49-3.792 3.588-4.145a1.43 1.43 0 0 0-.395-1.42zM12.288 78.25c-.58-.614-1.357-2.685-1.357-3.746 0-.738.61-1.338 1.358-1.338.748 0 1.357.6 1.357 1.338 0 1.06-.776 3.132-1.357 3.745zM69.756 30.96c7.698 0 13.96 6.145 13.96 13.697v3.6c-3.742-3.043-8.66-4.747-13.884-4.747-5.31 0-10.278 1.748-14.037 4.87v-3.724c0-7.553 6.263-13.698 13.96-13.698zm-17.02 13.876c-.922.91-1.747 1.356-2.263 1.223-.495-.126-.932-.768-1.217-1.353l4.06-3.863a16.287 16.287 0 0 0-.452 3.815v.068a1.44 1.44 0 0 0-.127.11zm-26.79 12.32a15.977 15.977 0 0 1 10.225-3.68h3.178c-.114 6.02-1.494 11.858-4.032 11.858-3.72 0-9.37-3.783-9.37-8.177zm17.265 37.694c0 1.176-.97 2.133-2.163 2.133h-1.995c-1.193 0-2.163-.957-2.163-2.133v-10.11c0-.798-.202-1.556-.552-2.23h6.873v12.34zm33.842 2.133h-1.996c-1.192 0-2.163-.957-2.163-2.133V84.207c0-2.82-2.285-5.113-5.094-5.113h-1.996c-2.722 0-5.027 2.314-5.093 5.08a1.43 1.43 0 0 0-.004.122v10.302c0 1.176-.97 2.133-2.163 2.133h-1.996c-1.193 0-2.163-.956-2.163-2.132V73.74c0-.798-.656-1.445-1.465-1.445-.81 0-1.467.647-1.467 1.445v5.88H31.595v.01c-2.72 0-5.008 2.314-5.074 5.08a1.43 1.43 0 0 0-.004.123v9.765c0 1.176-.97 2.133-2.163 2.133h-1.996c-1.193 0-2.163-.956-2.163-2.132V69.334c0-3.572 1.197-6.87 3.212-9.525 1.323 5.197 7.502 8.416 11.91 8.416 6.047 0 6.88-10.407 6.964-14.748h10.584v4.507c0 3.222 2.658 5.844 5.926 5.844h20.425V94.85c0 1.176-.97 2.133-2.163 2.133zm3.67-36.046H58.79c-1.652 0-2.995-1.327-2.995-2.955V52.42c.038-.035.075-.07.11-.11 1.927-2.173 4.44-3.808 7.284-4.8v4.308c0 .798.656 1.445 1.465 1.445.81 0 1.465-.647 1.465-1.445v-5.08a20.654 20.654 0 0 1 3.712-.335c1.21 0 2.403.105 3.56.308v5.108c0 .798.656 1.445 1.465 1.445.81 0 1.466-.647 1.466-1.445V47.46c2.838.965 5.356 2.565 7.298 4.696.032.034.064.065.097.096v5.733c0 1.628-1.343 2.954-2.995 2.954zm7.857-14.88c-.454.12-1.144-.21-1.932-.907v-.494c0-1.115-.113-2.204-.327-3.257l3.476 3.307c-.29.593-.734 1.224-1.217 1.35z" fill="currentColor"/></g></svg>
