<svg width="50" height="50" viewBox="0 0 65 84" xmlns="http://www.w3.org/2000/svg" id="icon"><g transform="translate(-17 -16)" fill="none" fill-rule="evenodd"><path d="M0 0h99.083v100H0z"/><g transform="translate(17.835 16)" fill="currentColor"><path d="M22.167 24.5a1.29 1.29 0 0 0 .378 1.775 1.268 1.268 0 0 0 1.758-.38c.198-.31 4.8-7.637.48-13.197-2.967-3.818 1.225-9.023 1.29-9.1a1.29 1.29 0 0 0-.162-1.807 1.263 1.263 0 0 0-1.79.16c-.057.07-1.39 1.694-2.243 3.96-1.195 3.177-.882 6.072.905 8.37 3.198 4.116-.578 10.162-.615 10.22zM39.476 24.5a1.29 1.29 0 0 0 .377 1.775 1.268 1.268 0 0 0 1.758-.38c.198-.31 4.8-7.637.48-13.197-2.966-3.818 1.227-9.023 1.29-9.1a1.29 1.29 0 0 0-.16-1.807 1.263 1.263 0 0 0-1.792.16c-.055.07-1.39 1.694-2.242 3.96-1.196 3.177-.883 6.072.904 8.37 3.198 4.116-.577 10.162-.614 10.22zM30.568 25.875a1.29 1.29 0 0 0 .178 1.806 1.26 1.26 0 0 0 1.79-.18c.064-.078 1.59-1.977 2.433-4.72 1.153-3.75.5-7.27-1.893-10.177-3.453-4.198 1.265-10.435 1.337-10.53a1.29 1.29 0 0 0-.217-1.8 1.264 1.264 0 0 0-1.785.22c-.25.32-6.066 7.946-1.29 13.75 4.398 5.346-.35 11.38-.554 11.632zM61.973 33.855H1.31c-.703 0-1.273.574-1.273 1.283v4.936c0 .665.5 1.21 1.142 1.277.068.013 4.212.02 4.212.02-.094 2.735.21 10.032 5.405 15.93 1.845 2.095 4.105 3.782 6.764 5.06l-7.297 19.825c-.244.665.09 1.404.75 1.65a1.273 1.273 0 0 0 1.635-.756l7.262-19.732c3.063 1.112 6.574 1.76 10.516 1.938v15.862c0 .69.54 1.25 1.215 1.28a1.276 1.276 0 0 0 1.216-1.28V65.285c3.943-.18 7.454-.827 10.516-1.938l7.263 19.732a1.273 1.273 0 0 0 1.635.755c.658-.247.993-.985.75-1.65l-7.3-19.824c2.66-1.278 4.92-2.965 6.765-5.06 5.196-5.897 5.5-13.195 5.405-15.93 0 0 4.145-.008 4.213-.02a1.278 1.278 0 0 0 1.14-1.276v-4.936c.002-.71-.568-1.283-1.27-1.283zM50.565 55.617c-3.833 4.336-9.784 6.72-17.71 7.1V58.01c0-.69-.538-1.25-1.214-1.28-.675.03-1.214.592-1.214 1.28v4.707c-7.925-.38-13.876-2.764-17.71-7.1-4.633-5.242-4.85-11.973-4.774-14.247H55.34c.075 2.273-.14 9.005-4.775 14.247zM60.7 38.79H2.58v-2.368H60.7v2.37z"/></g></g></svg>
