<svg width="50" height="50" viewBox="0 0 80 70" xmlns="http://www.w3.org/2000/svg"><g fill="none" fill-rule="evenodd"><path d="M-10-30H90V70H-10z"/><g fill="currentColor"><path d="M78.667 37.52h-4V12.06c0-.804-.534-1.34-1.334-1.34h-28V1.34C45.333.536 44.8 0 44 0H12c-.8 0-1.333.536-1.333 1.34v28.14H1.333c-.8 0-1.333.535-1.333 1.34v37.517c0 .804.533 1.34 1.333 1.34h77.334c.8 0 1.333-.536 1.333-1.34V38.86c0-.805-.533-1.34-1.333-1.34zM61.333 13.4v8.04H56V13.4h5.333zm-8 0v9.38c0 .803.534 1.34 1.334 1.34h8c.8 0 1.333-.537 1.333-1.34V13.4h8v24.12H45.333V13.4h8zm5.334 26.8H64v8.038h-5.333v-8.04zm-28-37.52v8.04h-5.334V2.68h5.334zm-17.334 0h9.334v9.38c0 .804.533 1.34 1.333 1.34h8c.8 0 1.333-.536 1.333-1.34V2.68h9.334v26.8H13.333V2.68zm5.334 29.48h8v10.718h-8v-10.72zm-16 0H16v12.058c0 .804.533 1.34 1.333 1.34H28c.8 0 1.333-.536 1.333-1.34v-12.06h13.334V67h-40V32.16zm74.666 34.838h-32v-26.8H56v9.38c0 .804.533 1.34 1.333 1.34h8c.8 0 1.334-.536 1.334-1.34v-9.38h10.666V67z"/><path d="M16 18.76h8v2.68h-8zm0 5.36h10.667v2.68H16zM5.333 56.278h8v2.68h-8zm0 5.36H16v2.68H5.333zM48 56.278h8v2.68h-8zm0 5.36h10.667v2.68H48zM48 26.8h8v2.68h-8zm0 5.36h10.667v2.68H48z"/></g></g></svg>